<?xml version="1.0" encoding="utf-8"?>
<!-- Generator: Adobe Illustrator 22.0.1, SVG Export Plug-In . SVG Version: 6.00 Build 0)  -->
<svg version="1.1" id="Слой_1" xmlns="http://www.w3.org/2000/svg" xmlns:xlink="http://www.w3.org/1999/xlink" x="0px" y="0px"
	 viewBox="0 0 60 60" style="enable-background:new 0 0 60 60;" xml:space="preserve">
<style type="text/css">
	.st0{fill-rule:evenodd;clip-rule:evenodd;fill:#35353B;}
</style>
<path class="st0" d="M59.6,29.5l0,0.2C58.4,46.2,43.6,60,27.2,60c-16.4,0-28.5-13.4-27-29.9C1.5,14.3,14.8,1.2,30.2,0.2l0.7,0
	c-1.6,2.7-2.5,5.8-2.8,9.4l-3.4,38.1h6.9l2-22.5C40.5,32.7,51.3,34.1,59.6,29.5z"/>
<path class="st0" d="M47.5,0C54.4,0,60,5.6,60,12.6c0,6.9-5.6,12.6-12.5,12.6c-6.9,0-12.5-5.6-12.5-12.6C35.1,5.6,40.7,0,47.5,0z"/>
</svg>
